<mxfile host="Electron" agent="Mozilla/5.0 (Windows NT 10.0; Win64; x64) AppleWebKit/537.36 (KHTML, like Gecko) draw.io/26.1.1 Chrome/132.0.6834.210 Electron/34.3.3 Safari/537.36" version="26.1.1">
  <diagram name="Page-1" id="b520641d-4fe3-3701-9064-5fc419738815">
    <mxGraphModel dx="8692" dy="3820" grid="1" gridSize="10" guides="1" tooltips="1" connect="1" arrows="1" fold="1" page="1" pageScale="1" pageWidth="1169" pageHeight="827" background="none" math="0" shadow="0">
      <root>
        <mxCell id="0" />
        <mxCell id="1" parent="0" />
        <mxCell id="e1TGtLcBwPyRkZDZMINm-18" value="&lt;font style=&quot;font-size: 22px;&quot;&gt;Bot&lt;/font&gt;" style="swimlane;whiteSpace=wrap;html=1;startSize=53;fillColor=#dae8fc;strokeColor=#6c8ebf;rounded=1;" parent="1" vertex="1">
          <mxGeometry x="700" y="-543" width="1450" height="1070" as="geometry" />
        </mxCell>
        <mxCell id="e1TGtLcBwPyRkZDZMINm-77" value="&lt;p style=&quot;margin:0px;margin-top:4px;text-align:center;&quot;&gt;&lt;b&gt;Customer&lt;/b&gt;&lt;/p&gt;&lt;hr size=&quot;1&quot; style=&quot;border-style:solid;&quot;&gt;&lt;p style=&quot;margin: 0px 0px 0px 4px;&quot;&gt;+ customer_id:&amp;nbsp;&lt;i&gt;int&lt;/i&gt;&lt;/p&gt;&lt;p style=&quot;margin: 0px 0px 0px 4px;&quot;&gt;+ customer_login:&amp;nbsp;&lt;i&gt;str&lt;/i&gt;&lt;/p&gt;&lt;p style=&quot;margin: 0px 0px 0px 4px;&quot;&gt;+ customer_name:&amp;nbsp;&lt;i&gt;str&lt;/i&gt;&lt;/p&gt;&lt;p style=&quot;margin: 0px 0px 0px 4px;&quot;&gt;+ customer_password_hash:&amp;nbsp;&lt;i&gt;str&lt;/i&gt;&lt;/p&gt;&lt;p style=&quot;margin: 0px 0px 0px 4px;&quot;&gt;+ customer_registration_date_at:&amp;nbsp;&lt;i&gt;datetime&lt;/i&gt;&lt;/p&gt;&lt;p style=&quot;margin: 0px 0px 0px 4px;&quot;&gt;+ customer_update_date_at:&amp;nbsp;&lt;i&gt;datetime&lt;/i&gt;&lt;/p&gt;&lt;p style=&quot;margin: 0px 0px 0px 4px;&quot;&gt;+ customer_last_entry_date_time:&amp;nbsp;&lt;span style=&quot;background-color: transparent; color: light-dark(rgb(0, 0, 0), rgb(255, 255, 255));&quot;&gt;&lt;i&gt;datetime&lt;/i&gt;&lt;/span&gt;&lt;/p&gt;&lt;hr size=&quot;1&quot; style=&quot;border-style:solid;&quot;&gt;&lt;p style=&quot;margin:0px;margin-left:4px;&quot;&gt;+&lt;span style=&quot;background-color: transparent; color: light-dark(rgb(0, 0, 0), rgb(255, 255, 255));&quot;&gt;&amp;nbsp;get_last_questionary_id(&lt;/span&gt;&lt;span style=&quot;background-color: transparent; color: light-dark(rgb(0, 0, 0), rgb(255, 255, 255));&quot;&gt;customer_id&lt;/span&gt;&lt;span style=&quot;background-color: transparent; color: light-dark(rgb(0, 0, 0), rgb(255, 255, 255));&quot;&gt;):&lt;/span&gt;&lt;i style=&quot;background-color: transparent; color: light-dark(rgb(0, 0, 0), rgb(255, 255, 255));&quot;&gt;&amp;nbsp;int&lt;/i&gt;&lt;/p&gt;" style="verticalAlign=top;align=left;overflow=fill;html=1;whiteSpace=wrap;fillColor=#d5e8d4;strokeColor=#82b366;" parent="e1TGtLcBwPyRkZDZMINm-18" vertex="1">
          <mxGeometry x="900" y="70" width="450" height="180" as="geometry" />
        </mxCell>
        <mxCell id="e1TGtLcBwPyRkZDZMINm-78" value="&lt;p style=&quot;margin:0px;margin-top:4px;text-align:center;&quot;&gt;&lt;b&gt;CustomerQuestionary&lt;/b&gt;&lt;/p&gt;&lt;hr size=&quot;1&quot; style=&quot;border-style:solid;&quot;&gt;&lt;p style=&quot;margin:0px;margin-left:4px;&quot;&gt;+ customer_questionary_id: &lt;i&gt;int&lt;/i&gt;&lt;/p&gt;&lt;p style=&quot;margin:0px;margin-left:4px;&quot;&gt;+ customer_id: &lt;i&gt;int&lt;/i&gt;&lt;/p&gt;&lt;p style=&quot;margin:0px;margin-left:4px;&quot;&gt;+ questionary_id: &lt;i&gt;int&lt;/i&gt;&lt;/p&gt;&lt;p style=&quot;margin:0px;margin-left:4px;&quot;&gt;&lt;span style=&quot;background-color: transparent; color: light-dark(rgb(0, 0, 0), rgb(255, 255, 255));&quot;&gt;+ start_questionary_date_at: &lt;/span&gt;&lt;i style=&quot;background-color: transparent; color: light-dark(rgb(0, 0, 0), rgb(255, 255, 255));&quot;&gt;datetime&lt;/i&gt;&lt;/p&gt;&lt;p style=&quot;margin:0px;margin-left:4px;&quot;&gt;+ end_questionary_date_at: &lt;i&gt;datetime&lt;/i&gt;&lt;/p&gt;&lt;hr&gt;&lt;p style=&quot;margin:0px;margin-left:4px;&quot;&gt;+ get_last_question_id(&lt;span style=&quot;background-color: transparent; color: light-dark(rgb(0, 0, 0), rgb(255, 255, 255));&quot;&gt;customer_id,&amp;nbsp;&lt;/span&gt;&lt;span style=&quot;background-color: transparent; color: light-dark(rgb(0, 0, 0), rgb(255, 255, 255));&quot;&gt;questionary_id&lt;/span&gt;&lt;span style=&quot;background-color: transparent; color: light-dark(rgb(0, 0, 0), rgb(255, 255, 255));&quot;&gt;):&lt;/span&gt;&lt;i style=&quot;background-color: transparent; color: light-dark(rgb(0, 0, 0), rgb(255, 255, 255));&quot;&gt;&amp;nbsp;int&lt;/i&gt;&lt;/p&gt;&lt;p style=&quot;margin:0px;margin-left:4px;&quot;&gt;&lt;i&gt;&lt;br&gt;&lt;/i&gt;&lt;/p&gt;" style="verticalAlign=top;align=left;overflow=fill;html=1;whiteSpace=wrap;fillColor=#d5e8d4;strokeColor=#82b366;" parent="e1TGtLcBwPyRkZDZMINm-18" vertex="1">
          <mxGeometry x="900" y="300" width="345" height="150" as="geometry" />
        </mxCell>
        <mxCell id="e1TGtLcBwPyRkZDZMINm-79" value="&lt;p style=&quot;margin:0px;margin-top:4px;text-align:center;&quot;&gt;&lt;b&gt;Questionary&lt;/b&gt;&lt;/p&gt;&lt;hr size=&quot;1&quot; style=&quot;border-style:solid;&quot;&gt;&lt;p style=&quot;margin:0px;margin-left:4px;&quot;&gt;&lt;span&gt;+ questionary_id: &lt;i style=&quot;&quot;&gt;int&lt;/i&gt;&lt;/span&gt;&lt;/p&gt;&lt;p style=&quot;margin:0px;margin-left:4px;&quot;&gt;&lt;span&gt;+&amp;nbsp;&lt;span style=&quot;color: light-dark(rgb(0, 0, 0), rgb(255, 255, 255));&quot;&gt;questionary_name: &lt;i style=&quot;&quot;&gt;str&lt;/i&gt;&lt;/span&gt;&lt;/span&gt;&lt;/p&gt;&lt;p style=&quot;margin:0px;margin-left:4px;&quot;&gt;&lt;span&gt;&lt;span style=&quot;color: light-dark(rgb(0, 0, 0), rgb(255, 255, 255));&quot;&gt;+&amp;nbsp;&lt;/span&gt;&lt;span style=&quot;color: light-dark(rgb(0, 0, 0), rgb(255, 255, 255));&quot;&gt;questionary_description: &lt;i style=&quot;&quot;&gt;str&lt;/i&gt;&lt;/span&gt;&lt;/span&gt;&lt;/p&gt;&lt;p style=&quot;margin:0px;margin-left:4px;&quot;&gt;&lt;span&gt;&lt;span style=&quot;color: light-dark(rgb(0, 0, 0), rgb(255, 255, 255));&quot;&gt;+&amp;nbsp;&lt;/span&gt;&lt;span style=&quot;color: light-dark(rgb(0, 0, 0), rgb(255, 255, 255));&quot;&gt;questionary_create_date_at: &lt;i style=&quot;&quot;&gt;datetime&lt;/i&gt;&lt;/span&gt;&lt;/span&gt;&lt;/p&gt;&lt;p style=&quot;margin:0px;margin-left:4px;&quot;&gt;&lt;span&gt;&lt;span style=&quot;color: light-dark(rgb(0, 0, 0), rgb(255, 255, 255));&quot;&gt;+&amp;nbsp;&lt;/span&gt;&lt;span style=&quot;color: light-dark(rgb(0, 0, 0), rgb(255, 255, 255));&quot;&gt;questionary_update_date_at: &lt;i style=&quot;&quot;&gt;datetime&lt;/i&gt;&lt;/span&gt;&lt;/span&gt;&lt;/p&gt;&lt;p style=&quot;margin:0px;margin-left:4px;&quot;&gt;&lt;br&gt;&lt;/p&gt;" style="verticalAlign=top;align=left;overflow=fill;html=1;whiteSpace=wrap;fillColor=#d5e8d4;strokeColor=#82b366;" parent="e1TGtLcBwPyRkZDZMINm-18" vertex="1">
          <mxGeometry x="900" y="500" width="230" height="110" as="geometry" />
        </mxCell>
        <mxCell id="e1TGtLcBwPyRkZDZMINm-80" value="&lt;p style=&quot;margin:0px;margin-top:4px;text-align:center;&quot;&gt;&lt;b&gt;Question&lt;/b&gt;&lt;/p&gt;&lt;hr size=&quot;1&quot; style=&quot;border-style:solid;&quot;&gt;&lt;p style=&quot;margin:0px;margin-left:4px;&quot;&gt;+ question_id: &lt;i&gt;int&lt;/i&gt;&lt;/p&gt;&lt;p style=&quot;margin:0px;margin-left:4px;&quot;&gt;+&amp;nbsp;&lt;span style=&quot;background-color: transparent; color: light-dark(rgb(0, 0, 0), rgb(255, 255, 255));&quot;&gt;questionary_id: &lt;i&gt;int&lt;/i&gt;&lt;/span&gt;&lt;/p&gt;&lt;p style=&quot;margin:0px;margin-left:4px;&quot;&gt;&lt;span style=&quot;background-color: transparent; color: light-dark(rgb(0, 0, 0), rgb(255, 255, 255));&quot;&gt;+&amp;nbsp;&lt;/span&gt;&lt;span style=&quot;background-color: transparent; color: light-dark(rgb(0, 0, 0), rgb(255, 255, 255));&quot;&gt;question_content: &lt;i&gt;str&lt;/i&gt;&lt;/span&gt;&lt;/p&gt;" style="verticalAlign=top;align=left;overflow=fill;html=1;whiteSpace=wrap;fillColor=#d5e8d4;strokeColor=#82b366;" parent="e1TGtLcBwPyRkZDZMINm-18" vertex="1">
          <mxGeometry x="900" y="650" width="160" height="90" as="geometry" />
        </mxCell>
        <mxCell id="e1TGtLcBwPyRkZDZMINm-81" value="&lt;p style=&quot;margin:0px;margin-top:4px;text-align:center;&quot;&gt;&lt;b&gt;Answer&lt;/b&gt;&lt;/p&gt;&lt;hr size=&quot;1&quot; style=&quot;border-style:solid;&quot;&gt;&lt;p style=&quot;margin:0px;margin-left:4px;&quot;&gt;+ answer_id: &lt;i&gt;int&lt;/i&gt;&lt;/p&gt;&lt;p style=&quot;margin:0px;margin-left:4px;&quot;&gt;+ question_id: &lt;i&gt;int&lt;/i&gt;&lt;/p&gt;&lt;p style=&quot;margin:0px;margin-left:4px;&quot;&gt;+ answer_content: &lt;i&gt;str&lt;/i&gt;&lt;/p&gt;" style="verticalAlign=top;align=left;overflow=fill;html=1;whiteSpace=wrap;fillColor=#d5e8d4;strokeColor=#82b366;" parent="e1TGtLcBwPyRkZDZMINm-18" vertex="1">
          <mxGeometry x="900" y="784" width="160" height="90" as="geometry" />
        </mxCell>
        <mxCell id="CU6UntBMCuJU3awso0vw-8" value="&lt;div style=&quot;font-family: &amp;quot;JetBrains Mono&amp;quot;, monospace;&quot;&gt;&lt;pre style=&quot;&quot;&gt;&lt;font style=&quot;color: rgb(0, 0, 0);&quot;&gt;aiohttp&lt;/font&gt;&lt;/pre&gt;&lt;/div&gt;" style="text;html=1;align=center;verticalAlign=middle;whiteSpace=wrap;rounded=1;fillColor=#e1d5e7;strokeColor=#9673a6;" parent="1" vertex="1">
          <mxGeometry x="380" y="-53" width="110" height="90" as="geometry" />
        </mxCell>
        <mxCell id="CU6UntBMCuJU3awso0vw-9" value="" style="shape=flexArrow;endArrow=classic;html=1;rounded=0;endWidth=29.411764705882355;startArrow=block;edgeStyle=entityRelationEdgeStyle;" parent="1" source="e1TGtLcBwPyRkZDZMINm-17" target="CU6UntBMCuJU3awso0vw-8" edge="1">
          <mxGeometry width="50" height="50" relative="1" as="geometry">
            <mxPoint x="90" y="-225" as="sourcePoint" />
            <mxPoint x="130" y="-110" as="targetPoint" />
          </mxGeometry>
        </mxCell>
        <mxCell id="CU6UntBMCuJU3awso0vw-10" value="" style="shape=flexArrow;endArrow=classic;html=1;rounded=0;endWidth=29.411764705882355;startArrow=block;edgeStyle=entityRelationEdgeStyle;" parent="1" source="e1TGtLcBwPyRkZDZMINm-18" target="CU6UntBMCuJU3awso0vw-8" edge="1">
          <mxGeometry width="50" height="50" relative="1" as="geometry">
            <mxPoint x="240" y="-70" as="sourcePoint" />
            <mxPoint x="150" y="10" as="targetPoint" />
          </mxGeometry>
        </mxCell>
        <mxCell id="4joDOAA1imo1mxUy6S7N-1" value="&lt;font style=&quot;font-size: 22px;&quot;&gt;DB_API&lt;/font&gt;" style="swimlane;whiteSpace=wrap;html=1;rounded=1;strokeColor=#6c8ebf;align=center;verticalAlign=middle;fontFamily=Helvetica;fontSize=12;fontColor=default;fontStyle=1;fillColor=#dae8fc;startSize=70;" vertex="1" parent="1">
          <mxGeometry x="-2490" y="-720" width="2660" height="1380" as="geometry" />
        </mxCell>
        <mxCell id="e1TGtLcBwPyRkZDZMINm-16" value="&lt;font style=&quot;font-size: 22px;&quot;&gt;DB&lt;/font&gt;" style="swimlane;whiteSpace=wrap;html=1;startSize=53;fillColor=#dae8fc;strokeColor=#6c8ebf;labelBackgroundColor=none;labelBorderColor=none;rounded=1;" parent="4joDOAA1imo1mxUy6S7N-1" vertex="1">
          <mxGeometry x="50" y="177" width="1110" height="1070" as="geometry" />
        </mxCell>
        <mxCell id="e1TGtLcBwPyRkZDZMINm-74" style="edgeStyle=orthogonalEdgeStyle;rounded=0;orthogonalLoop=1;jettySize=auto;html=1;" parent="e1TGtLcBwPyRkZDZMINm-16" source="e1TGtLcBwPyRkZDZMINm-76" target="e1TGtLcBwPyRkZDZMINm-28" edge="1">
          <mxGeometry relative="1" as="geometry" />
        </mxCell>
        <mxCell id="e1TGtLcBwPyRkZDZMINm-23" value="&lt;p style=&quot;text-align: center; margin: 4px 0px 0px;&quot;&gt;&lt;b&gt;customer&lt;/b&gt;&lt;/p&gt;&lt;hr size=&quot;1&quot; style=&quot;border-style:solid;&quot;&gt;&lt;p style=&quot;margin:0px;margin-left:4px;&quot;&gt;PK customer_id: &lt;i&gt;int&lt;/i&gt;&lt;/p&gt;&lt;p style=&quot;margin:0px;margin-left:4px;&quot;&gt;FK customer_last_questionary_id:&lt;i&gt; int&lt;/i&gt;&lt;/p&gt;&lt;p style=&quot;margin:0px;margin-left:4px;&quot;&gt;+ customer_login: &lt;i&gt;str&lt;/i&gt;&lt;/p&gt;&lt;p style=&quot;margin:0px;margin-left:4px;&quot;&gt;+ customer_name: &lt;i&gt;str&lt;/i&gt;&lt;/p&gt;&lt;p style=&quot;margin:0px;margin-left:4px;&quot;&gt;+ customer_password_hash: &lt;i&gt;str&lt;/i&gt;&lt;/p&gt;&lt;p style=&quot;margin:0px;margin-left:4px;&quot;&gt;+ customer_registration_date_at: &lt;i&gt;datetime&lt;/i&gt;&lt;/p&gt;&lt;p style=&quot;margin:0px;margin-left:4px;&quot;&gt;+ customer_update_date_at: &lt;i&gt;datetime&lt;/i&gt;&lt;/p&gt;&lt;p style=&quot;margin:0px;margin-left:4px;&quot;&gt;+ customer_last_entry_date_time:&amp;nbsp;&lt;span style=&quot;background-color: transparent; color: light-dark(rgb(0, 0, 0), rgb(255, 255, 255));&quot;&gt;&lt;i&gt;datetime&lt;/i&gt;&lt;/span&gt;&lt;/p&gt;" style="verticalAlign=top;align=left;overflow=fill;html=1;whiteSpace=wrap;fillColor=#d5e8d4;strokeColor=#82b366;" parent="e1TGtLcBwPyRkZDZMINm-16" vertex="1">
          <mxGeometry x="560" y="550" width="300" height="150" as="geometry" />
        </mxCell>
        <mxCell id="e1TGtLcBwPyRkZDZMINm-24" value="&lt;p style=&quot;margin:0px;margin-top:4px;text-align:center;&quot;&gt;&lt;b&gt;Questionary&lt;/b&gt;&lt;/p&gt;&lt;hr size=&quot;1&quot; style=&quot;border-style:solid;&quot;&gt;&lt;p style=&quot;margin:0px;margin-left:4px;&quot;&gt;&lt;span&gt;PK questionary_id: &lt;i style=&quot;&quot;&gt;int&lt;/i&gt;&lt;/span&gt;&lt;/p&gt;&lt;p style=&quot;margin:0px;margin-left:4px;&quot;&gt;&lt;span&gt;+&amp;nbsp;&lt;span style=&quot;color: light-dark(rgb(0, 0, 0), rgb(255, 255, 255));&quot;&gt;questionary_name: &lt;i style=&quot;&quot;&gt;str&lt;/i&gt;&lt;/span&gt;&lt;/span&gt;&lt;/p&gt;&lt;p style=&quot;margin:0px;margin-left:4px;&quot;&gt;&lt;span&gt;&lt;span style=&quot;color: light-dark(rgb(0, 0, 0), rgb(255, 255, 255));&quot;&gt;+&amp;nbsp;&lt;/span&gt;&lt;span style=&quot;color: light-dark(rgb(0, 0, 0), rgb(255, 255, 255));&quot;&gt;questionary_description: &lt;i style=&quot;&quot;&gt;str&lt;/i&gt;&lt;/span&gt;&lt;/span&gt;&lt;/p&gt;&lt;p style=&quot;margin:0px;margin-left:4px;&quot;&gt;&lt;span&gt;&lt;span style=&quot;color: light-dark(rgb(0, 0, 0), rgb(255, 255, 255));&quot;&gt;+&amp;nbsp;&lt;/span&gt;&lt;span style=&quot;color: light-dark(rgb(0, 0, 0), rgb(255, 255, 255));&quot;&gt;questionary_create_date_at: &lt;i style=&quot;&quot;&gt;datetime&lt;/i&gt;&lt;/span&gt;&lt;/span&gt;&lt;/p&gt;&lt;p style=&quot;margin:0px;margin-left:4px;&quot;&gt;&lt;span&gt;&lt;span style=&quot;color: light-dark(rgb(0, 0, 0), rgb(255, 255, 255));&quot;&gt;+&amp;nbsp;&lt;/span&gt;&lt;span style=&quot;color: light-dark(rgb(0, 0, 0), rgb(255, 255, 255));&quot;&gt;questionary_update_date_at: &lt;i style=&quot;&quot;&gt;datetime&lt;/i&gt;&lt;/span&gt;&lt;/span&gt;&lt;/p&gt;&lt;p style=&quot;margin:0px;margin-left:4px;&quot;&gt;&lt;br&gt;&lt;/p&gt;" style="verticalAlign=top;align=left;overflow=fill;html=1;whiteSpace=wrap;fillColor=#d5e8d4;strokeColor=#82b366;" parent="e1TGtLcBwPyRkZDZMINm-16" vertex="1">
          <mxGeometry x="60" y="320" width="230" height="110" as="geometry" />
        </mxCell>
        <mxCell id="e1TGtLcBwPyRkZDZMINm-34" value="" style="edgeStyle=orthogonalEdgeStyle;rounded=0;orthogonalLoop=1;jettySize=auto;html=1;" parent="e1TGtLcBwPyRkZDZMINm-16" source="e1TGtLcBwPyRkZDZMINm-36" target="e1TGtLcBwPyRkZDZMINm-23" edge="1">
          <mxGeometry relative="1" as="geometry" />
        </mxCell>
        <mxCell id="e1TGtLcBwPyRkZDZMINm-35" style="edgeStyle=orthogonalEdgeStyle;rounded=0;orthogonalLoop=1;jettySize=auto;html=1;" parent="e1TGtLcBwPyRkZDZMINm-16" source="e1TGtLcBwPyRkZDZMINm-40" target="e1TGtLcBwPyRkZDZMINm-24" edge="1">
          <mxGeometry relative="1" as="geometry" />
        </mxCell>
        <mxCell id="e1TGtLcBwPyRkZDZMINm-66" style="edgeStyle=orthogonalEdgeStyle;rounded=0;orthogonalLoop=1;jettySize=auto;html=1;" parent="e1TGtLcBwPyRkZDZMINm-16" source="e1TGtLcBwPyRkZDZMINm-68" target="e1TGtLcBwPyRkZDZMINm-60" edge="1">
          <mxGeometry relative="1" as="geometry" />
        </mxCell>
        <mxCell id="e1TGtLcBwPyRkZDZMINm-28" value="&lt;p style=&quot;margin:0px;margin-top:4px;text-align:center;&quot;&gt;&lt;b&gt;customerQuestionary&lt;/b&gt;&lt;/p&gt;&lt;hr size=&quot;1&quot; style=&quot;border-style:solid;&quot;&gt;&lt;p style=&quot;margin:0px;margin-left:4px;&quot;&gt;PK customer_questionary_id: &lt;i&gt;int&lt;/i&gt;&lt;/p&gt;&lt;p style=&quot;margin:0px;margin-left:4px;&quot;&gt;FK customer_id: &lt;i&gt;int&lt;/i&gt;&lt;/p&gt;&lt;p style=&quot;margin:0px;margin-left:4px;&quot;&gt;FK questionary_id: &lt;i&gt;int&lt;/i&gt;&lt;/p&gt;&lt;p style=&quot;margin:0px;margin-left:4px;&quot;&gt;FK customer_last_question_id:&lt;i&gt; int&lt;/i&gt;&lt;/p&gt;&lt;p style=&quot;margin:0px;margin-left:4px;&quot;&gt;+ start_questionary_date_at: &lt;i&gt;datetime&lt;/i&gt;&lt;/p&gt;&lt;p style=&quot;margin:0px;margin-left:4px;&quot;&gt;+ end_questionary_date_at: &lt;i&gt;datetime&lt;/i&gt;&lt;/p&gt;" style="verticalAlign=top;align=left;overflow=fill;html=1;whiteSpace=wrap;fillColor=#d5e8d4;strokeColor=#82b366;" parent="e1TGtLcBwPyRkZDZMINm-16" vertex="1">
          <mxGeometry x="523" y="200" width="345" height="120" as="geometry" />
        </mxCell>
        <mxCell id="e1TGtLcBwPyRkZDZMINm-38" value="" style="edgeStyle=orthogonalEdgeStyle;rounded=0;orthogonalLoop=1;jettySize=auto;html=1;" parent="e1TGtLcBwPyRkZDZMINm-16" source="e1TGtLcBwPyRkZDZMINm-28" target="e1TGtLcBwPyRkZDZMINm-36" edge="1">
          <mxGeometry relative="1" as="geometry">
            <mxPoint x="-510" y="281" as="sourcePoint" />
            <mxPoint x="-690" y="211" as="targetPoint" />
          </mxGeometry>
        </mxCell>
        <mxCell id="e1TGtLcBwPyRkZDZMINm-36" value="customer_id" style="text;html=1;align=center;verticalAlign=middle;whiteSpace=wrap;rounded=0;fillColor=#e1d5e7;strokeColor=#9673a6;" parent="e1TGtLcBwPyRkZDZMINm-16" vertex="1">
          <mxGeometry x="600.5" y="420" width="60" height="30" as="geometry" />
        </mxCell>
        <mxCell id="e1TGtLcBwPyRkZDZMINm-39" value="" style="edgeStyle=orthogonalEdgeStyle;rounded=0;orthogonalLoop=1;jettySize=auto;html=1;" parent="e1TGtLcBwPyRkZDZMINm-16" source="e1TGtLcBwPyRkZDZMINm-28" target="e1TGtLcBwPyRkZDZMINm-40" edge="1">
          <mxGeometry relative="1" as="geometry">
            <mxPoint x="-520" y="299" as="sourcePoint" />
            <mxPoint x="520" y="296" as="targetPoint" />
          </mxGeometry>
        </mxCell>
        <mxCell id="e1TGtLcBwPyRkZDZMINm-40" value="questionary_id" style="text;html=1;align=center;verticalAlign=middle;whiteSpace=wrap;rounded=0;fillColor=#e1d5e7;strokeColor=#9673a6;" parent="e1TGtLcBwPyRkZDZMINm-16" vertex="1">
          <mxGeometry x="380" y="320" width="110" height="30" as="geometry" />
        </mxCell>
        <mxCell id="e1TGtLcBwPyRkZDZMINm-62" style="edgeStyle=orthogonalEdgeStyle;rounded=0;orthogonalLoop=1;jettySize=auto;html=1;" parent="e1TGtLcBwPyRkZDZMINm-16" source="e1TGtLcBwPyRkZDZMINm-64" target="e1TGtLcBwPyRkZDZMINm-24" edge="1">
          <mxGeometry relative="1" as="geometry" />
        </mxCell>
        <mxCell id="e1TGtLcBwPyRkZDZMINm-60" value="&lt;p style=&quot;margin:0px;margin-top:4px;text-align:center;&quot;&gt;&lt;b&gt;Question&lt;/b&gt;&lt;/p&gt;&lt;hr size=&quot;1&quot; style=&quot;border-style:solid;&quot;&gt;&lt;p style=&quot;margin:0px;margin-left:4px;&quot;&gt;PK question_id: &lt;i&gt;int&lt;/i&gt;&lt;/p&gt;&lt;p style=&quot;margin:0px;margin-left:4px;&quot;&gt;FK&amp;nbsp;&lt;span style=&quot;background-color: transparent; color: light-dark(rgb(0, 0, 0), rgb(255, 255, 255));&quot;&gt;questionary_id: &lt;i&gt;int&lt;/i&gt;&lt;/span&gt;&lt;/p&gt;&lt;p style=&quot;margin:0px;margin-left:4px;&quot;&gt;&lt;span style=&quot;background-color: transparent; color: light-dark(rgb(0, 0, 0), rgb(255, 255, 255));&quot;&gt;+&amp;nbsp;&lt;/span&gt;&lt;span style=&quot;background-color: transparent; color: light-dark(rgb(0, 0, 0), rgb(255, 255, 255));&quot;&gt;question_content: &lt;i&gt;str&lt;/i&gt;&lt;/span&gt;&lt;/p&gt;" style="verticalAlign=top;align=left;overflow=fill;html=1;whiteSpace=wrap;fillColor=#d5e8d4;strokeColor=#82b366;" parent="e1TGtLcBwPyRkZDZMINm-16" vertex="1">
          <mxGeometry x="363" y="80" width="160" height="90" as="geometry" />
        </mxCell>
        <mxCell id="e1TGtLcBwPyRkZDZMINm-63" value="" style="edgeStyle=orthogonalEdgeStyle;rounded=0;orthogonalLoop=1;jettySize=auto;html=1;" parent="e1TGtLcBwPyRkZDZMINm-16" source="e1TGtLcBwPyRkZDZMINm-60" target="e1TGtLcBwPyRkZDZMINm-64" edge="1">
          <mxGeometry relative="1" as="geometry">
            <mxPoint x="-655" y="601" as="sourcePoint" />
            <mxPoint x="-780" y="354" as="targetPoint" />
          </mxGeometry>
        </mxCell>
        <mxCell id="e1TGtLcBwPyRkZDZMINm-64" value="questionary_id" style="text;html=1;align=center;verticalAlign=middle;whiteSpace=wrap;rounded=0;fillColor=#e1d5e7;strokeColor=#9673a6;" parent="e1TGtLcBwPyRkZDZMINm-16" vertex="1">
          <mxGeometry x="280" y="245" width="95" height="30" as="geometry" />
        </mxCell>
        <mxCell id="e1TGtLcBwPyRkZDZMINm-69" style="edgeStyle=orthogonalEdgeStyle;rounded=0;orthogonalLoop=1;jettySize=auto;html=1;" parent="e1TGtLcBwPyRkZDZMINm-16" source="e1TGtLcBwPyRkZDZMINm-70" target="e1TGtLcBwPyRkZDZMINm-60" edge="1">
          <mxGeometry relative="1" as="geometry" />
        </mxCell>
        <mxCell id="e1TGtLcBwPyRkZDZMINm-65" value="&lt;p style=&quot;margin:0px;margin-top:4px;text-align:center;&quot;&gt;&lt;b&gt;Answer&lt;/b&gt;&lt;/p&gt;&lt;hr size=&quot;1&quot; style=&quot;border-style:solid;&quot;&gt;&lt;p style=&quot;margin:0px;margin-left:4px;&quot;&gt;PK answer_id: &lt;i&gt;int&lt;/i&gt;&lt;/p&gt;&lt;p style=&quot;margin:0px;margin-left:4px;&quot;&gt;FK question_id: &lt;i&gt;int&lt;/i&gt;&lt;/p&gt;&lt;p style=&quot;margin:0px;margin-left:4px;&quot;&gt;+ answer_content: &lt;i&gt;str&lt;/i&gt;&lt;/p&gt;" style="verticalAlign=top;align=left;overflow=fill;html=1;whiteSpace=wrap;fillColor=#d5e8d4;strokeColor=#82b366;" parent="e1TGtLcBwPyRkZDZMINm-16" vertex="1">
          <mxGeometry x="20" y="80" width="160" height="90" as="geometry" />
        </mxCell>
        <mxCell id="e1TGtLcBwPyRkZDZMINm-67" value="" style="edgeStyle=orthogonalEdgeStyle;rounded=0;orthogonalLoop=1;jettySize=auto;html=1;" parent="e1TGtLcBwPyRkZDZMINm-16" source="e1TGtLcBwPyRkZDZMINm-28" target="e1TGtLcBwPyRkZDZMINm-68" edge="1">
          <mxGeometry relative="1" as="geometry">
            <mxPoint x="-669" y="350" as="sourcePoint" />
            <mxPoint x="-790" y="696" as="targetPoint" />
          </mxGeometry>
        </mxCell>
        <mxCell id="e1TGtLcBwPyRkZDZMINm-68" value="question_id" style="text;html=1;align=center;verticalAlign=middle;whiteSpace=wrap;rounded=0;fillColor=#e1d5e7;strokeColor=#9673a6;" parent="e1TGtLcBwPyRkZDZMINm-16" vertex="1">
          <mxGeometry x="660.5" y="110" width="70" height="30" as="geometry" />
        </mxCell>
        <mxCell id="e1TGtLcBwPyRkZDZMINm-70" value="question_id" style="text;html=1;align=center;verticalAlign=middle;whiteSpace=wrap;rounded=0;fillColor=#e1d5e7;strokeColor=#9673a6;" parent="e1TGtLcBwPyRkZDZMINm-16" vertex="1">
          <mxGeometry x="233" y="110" width="70" height="30" as="geometry" />
        </mxCell>
        <mxCell id="e1TGtLcBwPyRkZDZMINm-71" value="" style="edgeStyle=orthogonalEdgeStyle;rounded=0;orthogonalLoop=1;jettySize=auto;html=1;" parent="e1TGtLcBwPyRkZDZMINm-16" source="e1TGtLcBwPyRkZDZMINm-65" target="e1TGtLcBwPyRkZDZMINm-70" edge="1">
          <mxGeometry relative="1" as="geometry">
            <mxPoint x="-644" y="561" as="sourcePoint" />
            <mxPoint x="380" y="750" as="targetPoint" />
          </mxGeometry>
        </mxCell>
        <mxCell id="e1TGtLcBwPyRkZDZMINm-75" value="" style="edgeStyle=orthogonalEdgeStyle;rounded=0;orthogonalLoop=1;jettySize=auto;html=1;" parent="e1TGtLcBwPyRkZDZMINm-16" source="e1TGtLcBwPyRkZDZMINm-23" target="e1TGtLcBwPyRkZDZMINm-76" edge="1">
          <mxGeometry relative="1" as="geometry">
            <mxPoint x="-760" y="989" as="sourcePoint" />
            <mxPoint x="-1144" y="414" as="targetPoint" />
          </mxGeometry>
        </mxCell>
        <mxCell id="e1TGtLcBwPyRkZDZMINm-76" value="&lt;span style=&quot;text-align: left;&quot;&gt;questionary_id&lt;/span&gt;" style="text;html=1;align=center;verticalAlign=middle;whiteSpace=wrap;rounded=0;fillColor=#e1d5e7;strokeColor=#9673a6;" parent="e1TGtLcBwPyRkZDZMINm-16" vertex="1">
          <mxGeometry x="723" y="420" width="85" height="30" as="geometry" />
        </mxCell>
        <mxCell id="e1TGtLcBwPyRkZDZMINm-17" value="&lt;font style=&quot;font-size: 22px;&quot;&gt;API&lt;/font&gt;" style="swimlane;whiteSpace=wrap;html=1;startSize=53;fillColor=#dae8fc;strokeColor=#6c8ebf;rounded=1;" parent="4joDOAA1imo1mxUy6S7N-1" vertex="1">
          <mxGeometry x="1570" y="177" width="990" height="1070" as="geometry" />
        </mxCell>
        <mxCell id="CU6UntBMCuJU3awso0vw-2" value="&lt;p style=&quot;margin:0px;margin-top:4px;text-align:center;&quot;&gt;&lt;b&gt;get_customer&lt;/b&gt;&lt;/p&gt;&lt;hr size=&quot;1&quot; style=&quot;border-style:solid;&quot;&gt;&lt;p style=&quot;margin:0px;margin-left:4px;&quot;&gt;+ customer_id: &lt;i&gt;int&lt;/i&gt;&lt;br&gt;+ token: Token&lt;/p&gt;&lt;hr size=&quot;1&quot; style=&quot;border-style:solid;&quot;&gt;&lt;p style=&quot;margin:0px;margin-left:4px;&quot;&gt;+customer: customer&lt;br&gt;&lt;/p&gt;" style="verticalAlign=top;align=left;overflow=fill;html=1;whiteSpace=wrap;fillColor=#f8cecc;strokeColor=#b85450;" parent="e1TGtLcBwPyRkZDZMINm-17" vertex="1">
          <mxGeometry x="130" y="110" width="190" height="100" as="geometry" />
        </mxCell>
        <mxCell id="CU6UntBMCuJU3awso0vw-3" value="&lt;p style=&quot;margin:0px;margin-top:4px;text-align:center;&quot;&gt;&lt;b&gt;get_customer_questionary&lt;/b&gt;&lt;/p&gt;&lt;hr size=&quot;1&quot; style=&quot;border-style:solid;&quot;&gt;&lt;p style=&quot;margin:0px;margin-left:4px;&quot;&gt;+ customer_id: &lt;i&gt;int&lt;/i&gt;&lt;br&gt;+ questionary_id:&amp;nbsp;&lt;i&gt;int&lt;/i&gt;&lt;/p&gt;&lt;p style=&quot;margin:0px;margin-left:4px;&quot;&gt;+ token: Token&lt;i&gt;&lt;/i&gt;&lt;/p&gt;&lt;hr size=&quot;1&quot; style=&quot;border-style:solid;&quot;&gt;&lt;p style=&quot;margin:0px;margin-left:4px;&quot;&gt;+&amp;nbsp;&lt;span style=&quot;text-align: center;&quot;&gt;customer_questionary&lt;/span&gt;:&amp;nbsp;&lt;span style=&quot;background-color: transparent; color: light-dark(rgb(0, 0, 0), rgb(255, 255, 255)); text-align: center;&quot;&gt;customerQuestionary&lt;/span&gt;&lt;br&gt;&lt;/p&gt;&lt;div&gt;&lt;b style=&quot;background-color: transparent; color: light-dark(rgb(0, 0, 0), rgb(255, 255, 255)); text-align: center;&quot;&gt;&lt;br&gt;&lt;/b&gt;&lt;/div&gt;" style="verticalAlign=top;align=left;overflow=fill;html=1;whiteSpace=wrap;fillColor=#f8cecc;strokeColor=#b85450;" parent="e1TGtLcBwPyRkZDZMINm-17" vertex="1">
          <mxGeometry x="380" y="110" width="260" height="100" as="geometry" />
        </mxCell>
        <mxCell id="CU6UntBMCuJU3awso0vw-11" value="&lt;p style=&quot;margin:0px;margin-top:4px;text-align:center;&quot;&gt;&lt;b&gt;login_api&lt;/b&gt;&lt;/p&gt;&lt;hr size=&quot;1&quot; style=&quot;border-style:solid;&quot;&gt;&lt;p style=&quot;margin:0px;margin-left:4px;&quot;&gt;+ login: &lt;i&gt;int&lt;/i&gt;&lt;br&gt;+ password: str&lt;/p&gt;&lt;hr size=&quot;1&quot; style=&quot;border-style:solid;&quot;&gt;&lt;p style=&quot;margin:0px;margin-left:4px;&quot;&gt;+ token: Token&lt;br&gt;&lt;/p&gt;" style="verticalAlign=top;align=left;overflow=fill;html=1;whiteSpace=wrap;fillColor=#f8cecc;strokeColor=#b85450;" parent="e1TGtLcBwPyRkZDZMINm-17" vertex="1">
          <mxGeometry x="130" y="760" width="190" height="100" as="geometry" />
        </mxCell>
        <mxCell id="CU6UntBMCuJU3awso0vw-4" value="" style="shape=flexArrow;endArrow=classic;html=1;rounded=0;endWidth=29.411764705882355;startArrow=block;edgeStyle=entityRelationEdgeStyle;" parent="4joDOAA1imo1mxUy6S7N-1" source="e1TGtLcBwPyRkZDZMINm-16" target="CU6UntBMCuJU3awso0vw-7" edge="1">
          <mxGeometry width="50" height="50" relative="1" as="geometry">
            <mxPoint x="1280" y="547" as="sourcePoint" />
            <mxPoint x="1250" y="439.63" as="targetPoint" />
          </mxGeometry>
        </mxCell>
        <mxCell id="CU6UntBMCuJU3awso0vw-6" value="" style="shape=flexArrow;endArrow=classic;html=1;rounded=0;endWidth=29.411764705882355;startArrow=block;edgeStyle=entityRelationEdgeStyle;" parent="4joDOAA1imo1mxUy6S7N-1" source="e1TGtLcBwPyRkZDZMINm-17" target="CU6UntBMCuJU3awso0vw-7" edge="1">
          <mxGeometry width="50" height="50" relative="1" as="geometry">
            <mxPoint x="1430" y="407" as="sourcePoint" />
            <mxPoint x="1250" y="405" as="targetPoint" />
          </mxGeometry>
        </mxCell>
        <mxCell id="CU6UntBMCuJU3awso0vw-7" value="SQLAlchemy" style="text;html=1;align=center;verticalAlign=middle;whiteSpace=wrap;rounded=1;fillColor=#e1d5e7;strokeColor=#9673a6;" parent="4joDOAA1imo1mxUy6S7N-1" vertex="1">
          <mxGeometry x="1260" y="662" width="110" height="100" as="geometry" />
        </mxCell>
      </root>
    </mxGraphModel>
  </diagram>
</mxfile>
